<?xml version="1.0" standalone="no"?>
<!DOCTYPE svg PUBLIC "-//W3C//DTD SVG 20010904//EN"
 "http://www.w3.org/TR/2001/REC-SVG-20010904/DTD/svg10.dtd">
<svg version="1.0" xmlns="http://www.w3.org/2000/svg"
 width="3000.000000pt" height="3000.000000pt" viewBox="0 0 3000.000000 3000.000000"
 preserveAspectRatio="xMidYMid meet">

<g transform="translate(0.000000,3000.000000) scale(0.100000,-0.100000)"
fill="#000000" stroke="none">
<path d="M11540 25404 c-364 -47 -684 -213 -1003 -523 -619 -601 -1070 -1626
-1183 -2686 -20 -192 -23 -594 -5 -770 70 -700 300 -1307 680 -1795 89 -114
285 -315 396 -405 884 -715 2041 -589 2808 305 408 475 662 1081 754 1795 22
176 25 708 5 880 -76 635 -236 1184 -496 1702 -408 816 -950 1334 -1535 1469
-104 24 -332 39 -421 28z"/>
<path d="M18164 25400 c-634 -90 -1224 -620 -1659 -1490 -262 -523 -420 -1067
-497 -1705 -20 -172 -17 -704 5 -880 115 -892 500 -1647 1077 -2108 760 -608
1727 -605 2485 8 111 90 307 291 396 405 318 408 546 941 638 1485 57 333 71
755 37 1075 -112 1066 -565 2093 -1187 2695 -279 270 -582 442 -881 500 -98
19 -327 28 -414 15z"/>
<path d="M5770 20489 c-736 -77 -1248 -788 -1372 -1904 -20 -185 -17 -721 6
-910 46 -386 128 -723 253 -1040 367 -931 1104 -1612 1938 -1791 606 -129
1207 45 1635 475 352 354 564 846 621 1436 15 150 6 520 -16 665 -89 607 -322
1153 -718 1686 -386 519 -849 921 -1342 1164 -265 131 -481 197 -721 220 -123
11 -163 11 -284 -1z"/>
<path d="M23930 20490 c-224 -24 -450 -94 -705 -220 -644 -317 -1248 -919
-1651 -1643 -410 -736 -537 -1561 -354 -2297 137 -553 452 -1010 875 -1270
755 -464 1741 -289 2502 444 552 531 892 1270 998 2166 22 184 30 597 16 790
-44 600 -203 1100 -468 1473 -80 113 -250 281 -354 350 -150 99 -327 170 -491
197 -93 15 -274 20 -368 10z"/>
<path d="M14715 16529 c-1670 -89 -3393 -964 -4979 -2528 -659 -651 -1217
-1326 -1778 -2151 -781 -1148 -1219 -2125 -1382 -3075 -52 -304 -61 -423 -60
-805 0 -376 12 -521 65 -797 140 -732 484 -1384 951 -1803 376 -338 831 -572
1300 -670 198 -41 330 -52 563 -47 234 5 317 16 511 67 300 79 507 190 991
528 326 228 437 298 608 382 252 124 407 163 645 164 250 0 463 -54 737 -188
197 -96 343 -185 723 -440 439 -294 621 -393 896 -485 201 -67 304 -85 494
-85 190 0 293 18 494 85 275 92 457 191 896 485 380 255 526 344 723 440 274
134 487 188 737 188 238 -1 393 -40 645 -164 171 -84 282 -154 608 -382 484
-338 691 -449 991 -528 194 -51 277 -62 511 -67 232 -5 365 6 562 47 552 115
1118 440 1484 853 442 497 709 1122 811 1895 30 226 32 793 5 1027 -114 970
-482 1904 -1185 3010 -472 743 -1021 1459 -1592 2079 -207 224 -656 668 -850
840 -1388 1232 -2792 1930 -4215 2096 -315 36 -603 45 -910 29z m-945 -3553
c151 -35 266 -77 427 -157 255 -125 464 -280 677 -499 l126 -131 126 131 c213
219 422 374 677 499 248 123 443 178 663 188 212 10 370 -24 548 -115 361
-186 645 -582 735 -1027 140 -693 -130 -1434 -815 -2241 -285 -336 -728 -771
-1094 -1075 -158 -132 -370 -292 -433 -328 -211 -120 -495 -137 -726 -41 -86
35 -129 62 -281 178 -254 194 -450 364 -744 646 -713 682 -1138 1274 -1331
1852 -46 136 -90 332 -99 444 -3 36 -8 95 -11 131 -8 88 11 310 36 434 90 445
375 843 735 1027 181 93 304 119 524 113 119 -3 179 -10 260 -29z"/>
</g>
</svg>
